<svg xmlns="http://www.w3.org/2000/svg" xmlns:xlink="http://www.w3.org/1999/xlink" version="1.1" x="0px" y="0px" viewBox="0 0 100 100" enable-background="new 0 0 100 100" xml:space="preserve"><path d="M83.386,87.515c-0.004-0.089-0.013-0.178-0.026-0.266c-0.013-0.078-0.028-0.153-0.047-0.229  c-0.021-0.08-0.045-0.158-0.073-0.236c-0.028-0.075-0.058-0.148-0.092-0.22c-0.035-0.074-0.075-0.146-0.117-0.216  c-0.042-0.068-0.086-0.135-0.134-0.199c-0.048-0.063-0.099-0.125-0.153-0.186c-0.059-0.064-0.12-0.124-0.185-0.182  c-0.032-0.029-0.058-0.063-0.092-0.091l-11.814-9.515c-0.258-0.207-0.554-0.353-0.867-0.444l-2.934-34.323h4.017  c1.381,0,2.5-1.119,2.5-2.5v-7.36h3.933c1.381,0,2.5-1.119,2.5-2.5V2.5c0-1.381-1.119-2.5-2.5-2.5H63.875  c-1.381,0-2.5,1.119-2.5,2.5v11.713H58.75V2.5c0-1.381-1.119-2.5-2.5-2.5H42.875c-1.381,0-2.5,1.119-2.5,2.5v11.713H37.75V2.5  c0-1.381-1.119-2.5-2.5-2.5H22.7c-1.381,0-2.5,1.119-2.5,2.5v26.549c0,1.381,1.119,2.5,2.5,2.5h3.932v7.36  c0,1.381,1.119,2.5,2.5,2.5h4.018l-2.935,34.323c-0.313,0.092-0.609,0.237-0.867,0.444l-11.814,9.515  c-0.034,0.027-0.058,0.061-0.09,0.089c-0.066,0.059-0.129,0.12-0.188,0.186c-0.053,0.059-0.103,0.119-0.15,0.182  c-0.049,0.065-0.094,0.133-0.137,0.204c-0.042,0.068-0.08,0.139-0.115,0.211c-0.035,0.072-0.065,0.146-0.093,0.224  s-0.052,0.153-0.072,0.232c-0.02,0.076-0.036,0.153-0.048,0.232c-0.014,0.087-0.022,0.174-0.026,0.262  c-0.002,0.042-0.013,0.083-0.013,0.126V97.5c0,1.381,1.119,2.5,2.5,2.5h61.797c1.381,0,2.5-1.119,2.5-2.5v-9.861  C83.398,87.597,83.388,87.557,83.386,87.515z M25.2,5h7.55v11.713c0,1.381,1.119,2.5,2.5,2.5h7.625c1.381,0,2.5-1.119,2.5-2.5V5  h8.375v11.713c0,1.381,1.119,2.5,2.5,2.5h7.625c1.381,0,2.5-1.119,2.5-2.5V5h8.426v21.549h-3.933H29.132H25.2V5z M31.632,31.549  h36.736v4.86h-4.24H35.872h-4.24V31.549z M61.833,41.409l2.925,34.215H35.242l2.925-34.215H61.833z M31.797,80.624h0.722H67.48h0.02  h0.702l5.605,4.515H26.191L31.797,80.624z M78.398,95H21.602v-4.861h56.797V95z"/><text x="0" y="115" fill="#000000" font-size="5px" font-weight="bold" font-family="'Helvetica Neue', Helvetica, Arial-Unicode, Arial, Sans-serif">Created by LAFS</text><text x="0" y="120" fill="#000000" font-size="5px" font-weight="bold" font-family="'Helvetica Neue', Helvetica, Arial-Unicode, Arial, Sans-serif">from the Noun Project</text></svg>