<svg xmlns:dc="http://purl.org/dc/elements/1.1/" xmlns:cc="http://creativecommons.org/ns#" xmlns:rdf="http://www.w3.org/1999/02/22-rdf-syntax-ns#" xmlns:svg="http://www.w3.org/2000/svg" xmlns="http://www.w3.org/2000/svg" xmlns:sodipodi="http://sodipodi.sourceforge.net/DTD/sodipodi-0.dtd" xmlns:inkscape="http://www.inkscape.org/namespaces/inkscape" version="1.1" x="0px" y="0px" viewBox="0 0 100 100"><g transform="translate(0,-952.36218)"><path style="text-indent:0;text-transform:none;direction:ltr;block-progression:tb;baseline-shift:baseline;color:#000000;enable-background:accumulate;" d="M 25.6875,957.36625 A 3.0003,3.0001643 0 0 0 23,960.36612 l 0,11.99945 a 3.0003,3.0001643 0 0 0 0.46875,1.56243 l 5,7.99964 A 3.0003,3.0001643 0 0 0 31,983.36508 l 3.8125,0 -2.65625,43.99802 -4.15625,0 a 3.0003,3.0001643 0 0 0 -0.3125,0 3.0003,3.0001643 0 0 0 -1.5625,0.6562 l -5,3.9998 A 3.0003,3.0001643 0 0 0 20,1034.3628 l 0,9.9995 a 3.0003,3.0001643 0 0 0 3,2.9999 l 54,0 a 3.0003,3.0001643 0 0 0 3,-2.9999 l 0,-9.9995 a 3.0003,3.0001643 0 0 0 -1.125,-2.3437 l -5,-3.9998 A 3.0003,3.0001643 0 0 0 72,1027.3631 l -4.15625,0 -2.65625,-43.99802 3.8125,0 a 3.0003,3.0001643 0 0 0 2.53125,-1.43744 l 5,-7.99964 A 3.0003,3.0001643 0 0 0 77,972.36557 l 0,-11.99945 a 3.0003,3.0001643 0 0 0 -3,-2.99987 l -9,0 a 3.0003,3.0001643 0 0 0 -3,2.99987 l 0,5.99972 -4,0 0,-5.99972 a 3.0003,3.0001643 0 0 0 -3,-2.99987 l -10,0 a 3.0003,3.0001643 0 0 0 -3,2.99987 l 0,5.99972 -4,0 0,-5.99972 a 3.0003,3.0001643 0 0 0 -3,-2.99987 l -9,0 a 3.0003,3.0001643 0 0 0 -0.3125,0 z m 3.3125,5.99973 3,0 0,5.99973 a 3.0003,3.0001643 0 0 0 3,2.99986 l 10,0 a 3.0003,3.0001643 0 0 0 3,-2.99986 l 0,-5.99973 4,0 0,5.99973 a 3.0003,3.0001643 0 0 0 3,2.99986 l 10,0 a 3.0003,3.0001643 0 0 0 3,-2.99986 l 0,-5.99973 3,0 0,8.15588 -3.65625,5.84349 -5.3125,0 -24.34375,0 -5.03125,0 L 29,971.52186 l 0,-8.15588 z m 11.84375,19.9991 18.3125,0 2.65625,43.99802 -23.625,0 2.65625,-43.99802 z m -11.78125,49.99772 41.875,0 3.0625,2.4374 0,5.5623 -48,0 0,-5.5623 3.0625,-2.4374 z" fill="#000000" fill-opacity="1" stroke="none" marker="none" visibility="visible" display="inline" overflow="visible"/></g><text x="0" y="115" fill="#000000" font-size="5px" font-weight="bold" font-family="'Helvetica Neue', Helvetica, Arial-Unicode, Arial, Sans-serif">Created by johartcamp</text><text x="0" y="120" fill="#000000" font-size="5px" font-weight="bold" font-family="'Helvetica Neue', Helvetica, Arial-Unicode, Arial, Sans-serif">from the Noun Project</text></svg>