<svg xmlns="http://www.w3.org/2000/svg" xmlns:xlink="http://www.w3.org/1999/xlink" version="1.1" x="0px" y="0px" viewBox="0 0 95 95" enable-background="new 0 0 95 95" xml:space="preserve"><g><path d="M47.499,12.252c-19.467,0-35.247,15.781-35.247,35.248s15.78,35.248,35.247,35.248c19.468,0,35.248-15.781,35.248-35.248   S66.967,12.252,47.499,12.252z M48.067,51.27L40.053,65.15c-0.655,1.139-2.11,1.527-3.247,0.871s-1.524-2.109-0.869-3.246   l8.011-13.873c-0.173-0.436-0.274-0.906-0.274-1.402c0-1.211,0.573-2.277,1.45-2.977V19.777c0-1.314,1.063-2.377,2.376-2.377   s2.377,1.063,2.377,2.377v24.746c0.877,0.699,1.45,1.766,1.45,2.977C51.326,49.42,49.909,50.994,48.067,51.27z"/><g><path d="M47.499,90.934c-23.947,0-43.432-19.484-43.432-43.434S23.552,4.066,47.499,4.066c23.95,0,43.434,19.484,43.434,43.434    S71.449,90.934,47.499,90.934z M47.499,8.82c-21.328,0-38.68,17.352-38.68,38.68s17.352,38.68,38.68,38.68    c21.329,0,38.681-17.352,38.681-38.68S68.828,8.82,47.499,8.82z"/></g></g><text x="0" y="110" fill="#000000" font-size="5px" font-weight="bold" font-family="'Helvetica Neue', Helvetica, Arial-Unicode, Arial, Sans-serif">Created by Guilherme Furtado</text><text x="0" y="115" fill="#000000" font-size="5px" font-weight="bold" font-family="'Helvetica Neue', Helvetica, Arial-Unicode, Arial, Sans-serif">from the Noun Project</text></svg>