<svg xmlns="http://www.w3.org/2000/svg" xmlns:xlink="http://www.w3.org/1999/xlink" version="1.1" x="0px" y="0px" viewBox="0 0 512 512" enable-background="new 0 0 512 512" xml:space="preserve"><path d="M323.397,205.688c-8.358-0.672-16.312-0.984-23.89-0.984c-7.828,0-15.233,0.344-22.28,0.984l1.188-41.858  c17.858,0.711,37.983,4.141,60.717,11.016L489.114,40.887C410.366,12.238,343.601,0.004,287.415,0.004  c-292.73,0-298.793,331.948-224.95,403.557l76.905-100.373c0,0,2.781-61.53,41.5-102.866l16.953,33.398  c-50.421,37.937-50.031,99.623-50.031,99.623v135.998h106.67l63.999,42.655h106.654l0.031-42.499l-15.187-16.812  c0,0-115.983-24.687-70.656-90.686c8.406-12.219,17.312-17.219,26.25-17.219c39.234,0,79.296,95.78,81.312,95.78  c0.016,0,0.016,0,0.016,0c2.265-0.562-16.234-124.717-16.234-124.717S419.303,213.337,323.397,205.688z M139.135,223.954  c-14.468,29.156-19.078,58.171-20.484,71.187l-55.546,72.483c-8.812-17.844-15.188-42.375-17.672-69.437  c-0.25-2.562-0.438-5.156-0.609-7.734c5.672-0.25,10.188-4.922,10.188-10.641c0-5.891-4.781-10.656-10.672-10.656  c-0.031,0-0.078,0-0.125,0c0.094-14.468,1.234-28.968,3.375-43.249c0.547,0.062,1.094,0.125,1.641,0.125  c5.891,0,10.672-4.773,10.672-10.664c0-5.109-3.594-9.375-8.406-10.422c3.391-15.125,7.906-29.827,13.547-43.796  c1.375,0.648,2.906,1.016,4.531,1.016c5.89,0,10.656-4.773,10.656-10.664c0-4.367-2.625-8.117-6.391-9.766  c6.312-12.477,13.547-24.147,21.625-34.843c0.938-1.234,1.875-2.445,2.828-3.648c1.844,1.547,4.234,2.484,6.828,2.484  c5.891,0,10.672-4.781,10.672-10.672c0-3.102-1.344-5.891-3.453-7.844c8.766-9.039,18.297-17.203,28.5-24.398  c2.734-1.93,5.531-3.781,8.359-5.578c1.844,3.211,5.296,5.375,9.265,5.375c5.875,0,10.656-4.773,10.656-10.663  c0-1.883-0.484-3.641-1.344-5.18c12.781-6.352,26.453-11.516,40.921-15.5c1.203,4.578,5.359,7.961,10.312,7.961  c5.89,0,10.671-4.781,10.671-10.672c0-0.711-0.078-1.406-0.203-2.078c14.688-2.766,30.141-4.414,46.312-4.953  c0.109,5.805,4.844,10.477,10.672,10.477c5.843,0,10.577-4.703,10.655-10.539c13.781,0.359,28.062,1.484,42.812,3.352  c-0.094,0.539-0.141,1.078-0.141,1.633c0,5.891,4.766,10.664,10.672,10.664c5.375,0,9.812-3.984,10.547-9.156  c27.453,4.664,56.39,11.789,86.655,21.352L333.663,151.127c-22.14-5.82-43.03-8.773-62.248-8.773  c-33.219,0-62.187,8.672-86.093,25.781C166.291,181.76,150.745,200.54,139.135,223.954z M197.385,185.743  c15.453-11.147,34.983-19.171,59.671-21.421l-1.266,44.452c-15.344,3.094-28.516,7.797-39.812,13.594L197.385,185.743z   M365.554,323.468c-21.203,0-35.531,14.375-43.828,26.453c-10.108,14.734-20.093,37.483-10.187,62.327  c7.875,19.75,26.655,36.155,55.812,48.78c12.391,5.375,24.047,8.875,31.141,10.781l5.312,5.875v12.969h-78.891l-58.623-39.062  l-5.375-3.594h-6.453h-85.343V333.343v-0.078v-0.078c0-0.094,0.109-10.438,3.812-24.452c3.547-13.359,11.125-32.641,27.156-48.797  c22.359-22.499,55.812-33.905,99.42-33.905c7.109,0,14.578,0.312,22.187,0.922c17.609,1.391,32.984,6.766,45.719,15.953  c10.328,7.438,19.188,17.53,26.312,29.999c12.641,22.094,15.578,44.203,15.719,45.328l0.031,0.281l0.062,0.484  c1.484,9.905,2.969,20.062,4.422,30.062C399.429,333.53,383.382,323.468,365.554,323.468z"/><text x="0" y="527" fill="#000000" font-size="5px" font-weight="bold" font-family="'Helvetica Neue', Helvetica, Arial-Unicode, Arial, Sans-serif">Created by lastspark</text><text x="0" y="532" fill="#000000" font-size="5px" font-weight="bold" font-family="'Helvetica Neue', Helvetica, Arial-Unicode, Arial, Sans-serif">from the Noun Project</text></svg>