<svg xmlns="http://www.w3.org/2000/svg" xmlns:xlink="http://www.w3.org/1999/xlink" version="1.1" x="0px" y="0px" viewBox="0 10 80 80" enable-background="new 0 10 80 80" xml:space="preserve"><g><path d="M29.51,42.701L20,54.556l9.957,5.879v0.854l-7.941,3.604l-4.803,13.629h22.451c1.604,0,2.906-1.301,2.906-2.906V62.583   c-0.887-0.568-1.543-1.434-1.846-2.441c-0.693-2.316,0.621-4.76,2.939-5.453c2.318-0.695,4.76,0.617,5.455,2.938   c0.697,2.316-0.619,4.762-2.938,5.455v17.244c0,1.605-1.301,2.906-2.906,2.906h-2.27l2.486,5.883l21.549-9.111l-6.68-15.795   c5.66-8.176,3.615-19.393-4.564-25.049C46.026,33.785,35.424,35.332,29.51,42.701z"/></g><g><path d="M80.897,32.482c5.6,9.729,7.178,21.258,4.406,32.133H64.243c5.879-11.424,1.385-25.453-10.041-31.334   c-8.926-4.594-19.791-2.943-26.951,4.09L13.364,23.234c5.301-5.209,11.859-8.955,19.035-10.881l5.801,8.221l1.336-9.502   c14.758-1.383,29.188,4.918,38.209,16.68l-4.389,6.469L80.897,32.482z"/></g><text x="0" y="115" fill="#000000" font-size="5px" font-weight="bold" font-family="'Helvetica Neue', Helvetica, Arial-Unicode, Arial, Sans-serif">Created by Aldric Rodríguez</text><text x="0" y="120" fill="#000000" font-size="5px" font-weight="bold" font-family="'Helvetica Neue', Helvetica, Arial-Unicode, Arial, Sans-serif">from the Noun Project</text></svg>