<svg fill="#1A1A1A" xmlns="http://www.w3.org/2000/svg" xmlns:xlink="http://www.w3.org/1999/xlink" version="1.1" x="0px" y="0px" viewBox="0 0 100 100" enable-background="new 0 0 100 100" xml:space="preserve"><g><path fill-rule="evenodd" clip-rule="evenodd" d="M96.321,40.052l-30.587,6.046l1.007,1.888l0.63,1.888l0.378,2.018v2.013   l-0.126,2.015l-0.505,2.018l-0.755,1.888l-0.503,0.883h30.461V40.052 M82.349,39.171l-1.384-2.395l-1.637-2.392L77.44,31.99   l-2.015-1.888l-2.266-2.014l-2.139-1.515l-2.644-1.635l-2.644-1.007l-2.644-1.132l-1.889-0.506l-1.132-0.377l-0.88-0.628   l-0.883-0.884l-0.629-1.008l-0.377-1.134l-0.126-1.258l0.126-1.134l0.377-1.131l0.755-1.011l0.757-0.881l1.005-0.63l1.26-0.377   h1.26l1.007,0.126l3.146,0.88l3.02,1.007l1.512,0.632l4.407-9.699l-3.148-1.259L69.26,2.396l-3.273-1.01l-3.524-0.629l-3.398-0.504   l-3.524-0.126L52.141,0l-3.525,0.252L45.092,0.63l-3.524,0.63l-3.273,1.011l-3.273,1.007l-3.273,1.383l-3.146,1.511L25.455,8.06   l-2.894,1.766l-2.645,2.141l-2.769,2.265l-2.39,2.52l-2.392,2.645l-2.141,2.772l-2.013,2.769l-1.764,3.15l-1.509,3.146l-1.385,3.15   L2.42,37.783L1.54,41.059l-0.754,3.4l-0.504,3.653l-0.253,3.523v1.893v-0.124h10.7l0.126-3.152l0.251-2.894l0.379-1.134l0.628-1.01   l0.63-0.881l1.007-0.754l1.132-0.504l1.134-0.253h1.258l1.134,0.379l1.005,0.501l1.007,0.757l1.26,2.016l0.124,1.26v1.132   l-0.25,2.898l-0.126,2.896l0.253,2.897l0.502,2.896l0.756,2.769l1.007,2.648v0.124l0.504,1.512l0.251,1.637l-0.126,1.64   l-0.377,1.637L14.253,100h26.811l2.013-0.252l2.015-0.376l1.888-0.757l1.761-1.009l1.638-1.13l1.384-1.516l1.259-1.636l1.133-1.762   l0.629-1.888l0.504-2.02V75.189l0.252-1.765l0.378-1.762l0.754-1.639l1.008-1.385l1.259-1.385l1.258-1.008l0.505-0.376l1.637-1.134   l0.754-0.507h36.881V35.644l-17.623,3.524V39.171z M63.217,42.947l-3.272-2.265l-2.015-0.754l-2.013-0.38l-1.888-0.377   l-2.015,0.127L50,39.674l-2.013,0.63l-1.762,1.007l-1.637,1.132l-1.511,1.384l-1.258,1.514l-1.007,1.762l-0.125,0.377l-0.756,1.888   l-0.504,2.015l-0.126,2.019l0.126,2.013l0.377,2.015l0.756,2.017l1.007,1.762l1.132,1.637l1.385,1.388l1.637,1.26l1.762,1.006   l2.013,0.63l1.887,0.504h0.379v18.009l-0.125,1.763l-0.377,1.643l-0.757,1.631l-1.007,1.514l-1.132,1.261l-1.384,1.133   l-1.638,0.881l-1.636,0.505l-1.637,0.376l-1.006,0.13v-0.13H19.413l8.056-22.669l0.504-1.888l0.251-1.762L28.1,68.136l-0.253-1.762   l-0.627-1.762l-0.883-2.648l-0.628-2.517l-0.504-2.774l-0.251-2.642l0.125-2.77l0.377-2.646l0.503-2.643l0.881-2.648l1.134-2.516   l1.258-2.27l1.511-2.267l1.888-2.139l1.888-1.892l2.013-1.762l2.392-1.511l2.265-1.259l2.518-1.007l2.643-0.758l2.645-0.63   l2.644-0.377h2.769l2.77,0.251l2.642,0.503l2.645,0.76l2.517,0.881l2.393,1.258l2.392,1.384l2.14,1.636l1.889,1.891l1.888,2.015   l1.635,2.141l1.261,2.27L63.217,42.947z M42.826,53.403l0.251-1.639l0.379-1.638l0.754-1.764l0.881-1.509l1.258-1.26l1.385-1.135   l1.511-0.757l1.762-0.628l1.637-0.253h1.763l1.762,0.253l1.762,0.628l1.511,0.757l1.385,1.135l1.134,1.26l1.005,1.509l0.758,1.764   l0.377,1.638l0.126,1.763l-0.126,1.764l-0.377,1.762l-0.758,1.513l-1.005,1.637l-1.134,1.132l-1.385,1.135l-1.511,0.88   l-1.762,0.634l-1.762,0.251h-1.763l-1.637-0.251l-1.762-0.634l-1.511-0.88l-1.385-1.135l-1.258-1.132l-0.881-1.637l-0.754-1.513   l-0.379-1.762L42.826,53.403z"></path></g></svg>