<svg xmlns="http://www.w3.org/2000/svg" xmlns:xlink="http://www.w3.org/1999/xlink" viewBox="0 0 36 36" version="1.1" x="0px" y="0px"><title>icons/reserves/icon-historique</title><desc>Created with Sketch.</desc><g stroke="none" stroke-width="1" fill="none" fill-rule="evenodd"><g fill="#000000"><path d="M34.594,10.986 C35.531,13.236 36,15.574 36,18 C36,20.426 35.531,22.764 34.594,25.014 C33.68,27.159 32.391,29.063 30.727,30.727 C29.063,32.391 27.159,33.68 25.014,34.594 C22.764,35.531 20.426,36 18,36 C15.961,36 13.992,35.666 12.094,34.998 C10.242,34.353 8.549,33.439 7.014,32.256 C5.491,31.072 4.184,29.678 3.094,28.072 C2.543,27.263 2.066,26.42 1.661,25.541 C1.256,24.662 0.926,23.748 0.668,22.799 L2.83,22.201 C3.299,23.9 4.022,25.459 5.001,26.877 C5.98,28.295 7.137,29.514 8.473,30.533 C9.809,31.552 11.291,32.344 12.92,32.906 C14.549,33.468 16.242,33.75 18,33.75 C19.441,33.75 20.833,33.562 22.175,33.188 C23.517,32.814 24.771,32.283 25.937,31.597 C27.103,30.911 28.166,30.088 29.127,29.127 C30.088,28.166 30.911,27.103 31.597,25.937 C32.283,24.771 32.813,23.52 33.188,22.184 C33.563,20.848 33.75,19.453 33.75,18 C33.75,16.559 33.562,15.167 33.188,13.825 C32.814,12.483 32.283,11.229 31.597,10.063 C30.911,8.897 30.088,7.834 29.127,6.873 C28.166,5.912 27.103,5.089 25.937,4.403 C24.771,3.717 23.517,3.187 22.175,2.812 C20.833,2.437 19.441,2.25 18,2.25 C16.477,2.25 15,2.464 13.57,2.892 C12.14,3.32 10.807,3.926 9.571,4.711 C8.335,5.496 7.221,6.442 6.231,7.55 C5.241,8.658 4.423,9.891 3.779,11.25 L9,11.25 L9,13.5 L0,13.5 L0,4.5 L2.25,4.5 L2.25,9.316 C2.449,8.941 2.666,8.575 2.9,8.217 C3.134,7.859 3.38,7.511 3.638,7.171 C4.74,5.706 6.029,4.441 7.505,3.374 C9.052,2.272 10.71,1.435 12.48,0.86 C14.25,0.285 16.09,0 18,0 C20.426,0 22.764,0.469 25.014,1.406 C27.159,2.32 29.063,3.609 30.727,5.273 C32.391,6.937 33.68,8.842 34.594,10.986 Z M18,9 L18,18.65 L24.416,25.084 L22.834,26.666 L15.75,19.6 L15.75,9 L18,9 Z"/></g></g><text x="0" y="51" fill="#000000" font-size="5px" font-weight="bold" font-family="'Helvetica Neue', Helvetica, Arial-Unicode, Arial, Sans-serif">Created by Alain W.</text><text x="0" y="56" fill="#000000" font-size="5px" font-weight="bold" font-family="'Helvetica Neue', Helvetica, Arial-Unicode, Arial, Sans-serif">from the Noun Project</text></svg>