<svg xmlns:dc="http://purl.org/dc/elements/1.1/" xmlns:cc="http://creativecommons.org/ns#" xmlns:rdf="http://www.w3.org/1999/02/22-rdf-syntax-ns#" xmlns:svg="http://www.w3.org/2000/svg" xmlns="http://www.w3.org/2000/svg" xmlns:sodipodi="http://sodipodi.sourceforge.net/DTD/sodipodi-0.dtd" xmlns:inkscape="http://www.inkscape.org/namespaces/inkscape" version="1.1" x="0px" y="0px" viewBox="0 0 100 100"><g transform="translate(0,-952.36218)"><path style="text-indent:0;text-transform:none;direction:ltr;block-progression:tb;baseline-shift:baseline;color:#000000;enable-background:accumulate;" d="M 25.8125,959.36658 A 1.0001,1.0000488 0 0 0 25,960.36653 l 0,11.99939 a 1.0001,1.0000488 0 0 0 0.15625,0.53122 l 5,7.99959 A 1.0001,1.0000488 0 0 0 31,981.36546 l 5.9375,0 -2.875,47.99754 -6.0625,0 a 1.0001,1.0000488 0 0 0 -0.1875,0 1.0001,1.0000488 0 0 0 -0.4375,0.2187 l -5,3.9998 A 1.0001,1.0000488 0 0 0 22,1034.3627 l 0,9.9995 a 1.0001,1.0000488 0 0 0 1,1 l 54,0 a 1.0001,1.0000488 0 0 0 1,-1 l 0,-9.9995 a 1.0001,1.0000488 0 0 0 -0.375,-0.7812 l -5,-3.9998 A 1.0001,1.0000488 0 0 0 72,1029.363 l -6.0625,0 -2.875,-47.99754 5.9375,0 a 1.0001,1.0000488 0 0 0 0.84375,-0.46873 l 5,-7.99959 A 1.0001,1.0000488 0 0 0 75,972.36592 l 0,-11.99939 a 1.0001,1.0000488 0 0 0 -1,-0.99995 l -9,0 a 1.0001,1.0000488 0 0 0 -1,0.99995 l 0,7.99959 -8,0 0,-7.99959 a 1.0001,1.0000488 0 0 0 -1,-0.99995 l -10,0 a 1.0001,1.0000488 0 0 0 -1,0.99995 l 0,7.99959 -8,0 0,-7.99959 a 1.0001,1.0000488 0 0 0 -1,-0.99995 l -9,0 a 1.0001,1.0000488 0 0 0 -0.1875,0 z m 1.1875,1.9999 7,0 0,7.99959 a 1.0001,1.0000488 0 0 0 1,0.99995 l 10,0 a 1.0001,1.0000488 0 0 0 1,-0.99995 l 0,-7.99959 8,0 0,7.99959 a 1.0001,1.0000488 0 0 0 1,0.99995 l 10,0 a 1.0001,1.0000488 0 0 0 1,-0.99995 l 0,-7.99959 7,0 0,10.7182 -4.5625,7.28088 -36.875,0 -4.5625,-7.28088 0,-10.7182 z m 11.9375,19.99898 22.125,0 2.875,47.99754 -27.875,0 2.875,-47.99754 z m -10.59375,49.99744 6.4375,0 30.40625,0 6.46875,0 4.34375,3.4686 0,8.5308 -52,0 0,-8.5308 4.34375,-3.4686 z" fill="#000000" fill-opacity="1" stroke="none" marker="none" visibility="visible" display="inline" overflow="visible"/></g><text x="0" y="115" fill="#000000" font-size="5px" font-weight="bold" font-family="'Helvetica Neue', Helvetica, Arial-Unicode, Arial, Sans-serif">Created by johartcamp</text><text x="0" y="120" fill="#000000" font-size="5px" font-weight="bold" font-family="'Helvetica Neue', Helvetica, Arial-Unicode, Arial, Sans-serif">from the Noun Project</text></svg>